<svg width="72" height="72" viewBox="0 0 72 72" fill="none" xmlns="http://www.w3.org/2000/svg">
<g filter="url(#filter0_ii)">
<path d="M72 36C72 55.8823 55.8823 72 36 72C16.1177 72 0 55.8823 0 36C0 16.1177 16.1177 0 36 0C55.8823 0 72 16.1177 72 36ZM6.99731 36C6.99731 52.0177 19.9823 65.0027 36 65.0027C52.0177 65.0027 65.0027 52.0177 65.0027 36C65.0027 19.9823 52.0177 6.99731 36 6.99731C19.9823 6.99731 6.99731 19.9823 6.99731 36Z" fill="url(#paint0_linear)" fill-opacity="0.65"/>
</g>
<defs>
<filter id="filter0_ii" x="-2" y="-2" width="76" height="76" filterUnits="userSpaceOnUse" color-interpolation-filters="sRGB">
<feFlood flood-opacity="0" result="BackgroundImageFix"/>
<feBlend mode="normal" in="SourceGraphic" in2="BackgroundImageFix" result="shape"/>
<feColorMatrix in="SourceAlpha" type="matrix" values="0 0 0 0 0 0 0 0 0 0 0 0 0 0 0 0 0 0 127 0" result="hardAlpha"/>
<feOffset dx="2" dy="2"/>
<feGaussianBlur stdDeviation="1"/>
<feComposite in2="hardAlpha" operator="arithmetic" k2="-1" k3="1"/>
<feColorMatrix type="matrix" values="0 0 0 0 0.385278 0 0 0 0 0.496806 0 0 0 0 0.608333 0 0 0 0.6 0"/>
<feBlend mode="normal" in2="shape" result="effect1_innerShadow"/>
<feColorMatrix in="SourceAlpha" type="matrix" values="0 0 0 0 0 0 0 0 0 0 0 0 0 0 0 0 0 0 127 0" result="hardAlpha"/>
<feOffset dx="-2" dy="-2"/>
<feGaussianBlur stdDeviation="2"/>
<feComposite in2="hardAlpha" operator="arithmetic" k2="-1" k3="1"/>
<feColorMatrix type="matrix" values="0 0 0 0 1 0 0 0 0 1 0 0 0 0 1 0 0 0 0.4 0"/>
<feBlend mode="normal" in2="effect1_innerShadow" result="effect2_innerShadow"/>
</filter>
<linearGradient id="paint0_linear" x1="66.6" y1="72" x2="-1.42066" y2="-13.0233" gradientUnits="userSpaceOnUse">
<stop stop-color="#48647D"/>
<stop offset="0.234375" stop-color="#6B8299"/>
<stop offset="0.442708" stop-color="#DAE2EB"/>
<stop offset="0.682292" stop-color="#8CA2B7"/>
<stop offset="1" stop-color="#EDF2F7"/>
</linearGradient>
</defs>
</svg>
