<svg width="90" height="119" viewBox="0 0 90 119" fill="none" xmlns="http://www.w3.org/2000/svg">
<path d="M49 74C49 74.5523 48.5523 75 48 75H42C41.4477 75 41 74.5523 41 74V37.5L43.9264 0.920255C43.968 0.400554 44.4018 0 44.9232 0H45.0768C45.5982 0 46.032 0.400557 46.0736 0.920257L49 37.5V74Z" fill="#A5AFBD"/>
<g filter="url(#filter0_dd)">
<circle cx="45" cy="75" r="24" fill="url(#paint0_linear)" fill-opacity="0.5"/>
<circle cx="45" cy="75" r="24" stroke="#616D83" stroke-opacity="0.5" stroke-width="2"/>
</g>
<circle cx="45" cy="75" r="21" stroke="#616D83" stroke-opacity="0.5" stroke-width="2"/>
<circle cx="45" cy="75" r="18" stroke="#616D83" stroke-opacity="0.5" stroke-width="2"/>
<circle cx="45" cy="75" r="15" stroke="#616D83" stroke-opacity="0.5" stroke-width="2"/>
<circle cx="45" cy="75" r="12" stroke="#616D83" stroke-opacity="0.5" stroke-width="2"/>
<circle cx="45" cy="75" r="9" fill="url(#paint1_linear)" stroke="#616D83" stroke-opacity="0.5" stroke-width="2"/>
<defs>
<filter id="filter0_dd" x="0" y="32" width="90" height="87" filterUnits="userSpaceOnUse" color-interpolation-filters="sRGB">
<feFlood flood-opacity="0" result="BackgroundImageFix"/>
<feColorMatrix in="SourceAlpha" type="matrix" values="0 0 0 0 0 0 0 0 0 0 0 0 0 0 0 0 0 0 127 0"/>
<feOffset dx="4" dy="3"/>
<feGaussianBlur stdDeviation="8"/>
<feColorMatrix type="matrix" values="0 0 0 0 0.533333 0 0 0 0 0.647059 0 0 0 0 0.74902 0 0 0 0.54 0"/>
<feBlend mode="normal" in2="BackgroundImageFix" result="effect1_dropShadow"/>
<feColorMatrix in="SourceAlpha" type="matrix" values="0 0 0 0 0 0 0 0 0 0 0 0 0 0 0 0 0 0 127 0"/>
<feOffset dx="-4" dy="-2"/>
<feGaussianBlur stdDeviation="8"/>
<feColorMatrix type="matrix" values="0 0 0 0 1 0 0 0 0 1 0 0 0 0 1 0 0 0 1 0"/>
<feBlend mode="normal" in2="effect1_dropShadow" result="effect2_dropShadow"/>
<feBlend mode="normal" in="SourceGraphic" in2="effect2_dropShadow" result="shape"/>
</filter>
<linearGradient id="paint0_linear" x1="45" y1="51" x2="45" y2="99" gradientUnits="userSpaceOnUse">
<stop stop-color="#EBF3FA"/>
<stop offset="0.515625" stop-color="#E3EDF7"/>
<stop offset="1" stop-color="#E6F0F9"/>
</linearGradient>
<linearGradient id="paint1_linear" x1="45" y1="66" x2="45" y2="84" gradientUnits="userSpaceOnUse">
<stop stop-color="#EBF3FA"/>
<stop offset="0.515625" stop-color="#E3EDF7"/>
<stop offset="1" stop-color="#E6F0F9"/>
</linearGradient>
</defs>
</svg>
