<svg width="276" height="276" viewBox="0 0 276 276" fill="none" xmlns="http://www.w3.org/2000/svg">
<circle cx="138" cy="138" r="137" stroke="url(#paint0_linear)" stroke-width="2"/>
<path d="M48.93 206.224C47.5327 206.224 46.434 205.696 45.634 204.64C44.8447 203.573 44.45 202.16 44.45 200.4C44.45 198.64 44.8447 197.232 45.634 196.176C46.434 195.109 47.5327 194.576 48.93 194.576C50.338 194.576 51.4367 195.109 52.226 196.176C53.0153 197.232 53.41 198.64 53.41 200.4C53.41 202.16 53.0153 203.573 52.226 204.64C51.4367 205.696 50.338 206.224 48.93 206.224ZM47.234 203.136C47.618 203.755 48.1833 204.064 48.93 204.064C49.6767 204.064 50.242 203.749 50.626 203.12C51.0207 202.491 51.218 201.584 51.218 200.4C51.218 199.205 51.0207 198.293 50.626 197.664C50.242 197.035 49.6767 196.72 48.93 196.72C48.1833 196.72 47.618 197.035 47.234 197.664C46.85 198.293 46.658 199.205 46.658 200.4C46.658 201.595 46.85 202.507 47.234 203.136Z" fill="#31456A"/>
<path d="M25.01 103.8H26.93V115H24.722V106.136L22.61 106.728L22.066 104.84L25.01 103.8ZM33.1175 115.224C31.7202 115.224 30.6215 114.696 29.8215 113.64C29.0322 112.573 28.6375 111.16 28.6375 109.4C28.6375 107.64 29.0322 106.232 29.8215 105.176C30.6215 104.109 31.7202 103.576 33.1175 103.576C34.5255 103.576 35.6242 104.109 36.4135 105.176C37.2028 106.232 37.5975 107.64 37.5975 109.4C37.5975 111.16 37.2028 112.573 36.4135 113.64C35.6242 114.696 34.5255 115.224 33.1175 115.224ZM31.4215 112.136C31.8055 112.755 32.3708 113.064 33.1175 113.064C33.8642 113.064 34.4295 112.749 34.8135 112.12C35.2082 111.491 35.4055 110.584 35.4055 109.4C35.4055 108.205 35.2082 107.293 34.8135 106.664C34.4295 106.035 33.8642 105.72 33.1175 105.72C32.3708 105.72 31.8055 106.035 31.4215 106.664C31.0375 107.293 30.8455 108.205 30.8455 109.4C30.8455 110.595 31.0375 111.507 31.4215 112.136Z" fill="#31456A"/>
<path d="M85.432 41V39.352L89.256 35.416C90.1093 34.52 90.536 33.7733 90.536 33.176C90.536 32.7387 90.3973 32.3867 90.12 32.12C89.8533 31.8533 89.5067 31.72 89.08 31.72C88.2373 31.72 87.6133 32.1573 87.208 33.032L85.352 31.944C85.704 31.176 86.2107 30.5893 86.872 30.184C87.5333 29.7787 88.2587 29.576 89.048 29.576C90.0613 29.576 90.9307 29.896 91.656 30.536C92.3813 31.1653 92.744 32.0187 92.744 33.096C92.744 34.2587 92.1307 35.4533 90.904 36.68L88.712 38.872H92.92V41H85.432ZM98.3838 41.224C96.9864 41.224 95.8878 40.696 95.0878 39.64C94.2984 38.5733 93.9038 37.16 93.9038 35.4C93.9038 33.64 94.2984 32.232 95.0878 31.176C95.8878 30.1093 96.9864 29.576 98.3838 29.576C99.7918 29.576 100.89 30.1093 101.68 31.176C102.469 32.232 102.864 33.64 102.864 35.4C102.864 37.16 102.469 38.5733 101.68 39.64C100.89 40.696 99.7918 41.224 98.3838 41.224ZM96.6878 38.136C97.0718 38.7547 97.6371 39.064 98.3838 39.064C99.1304 39.064 99.6958 38.7493 100.08 38.12C100.474 37.4907 100.672 36.584 100.672 35.4C100.672 34.2053 100.474 33.2933 100.08 32.664C99.6958 32.0347 99.1304 31.72 98.3838 31.72C97.6371 31.72 97.0718 32.0347 96.6878 32.664C96.3038 33.2933 96.1118 34.2053 96.1118 35.4C96.1118 36.5947 96.3038 37.5067 96.6878 38.136Z" fill="#31456A"/>
<path d="M179.538 34.344C180.295 34.568 180.909 34.9627 181.378 35.528C181.858 36.0827 182.098 36.7547 182.098 37.544C182.098 38.696 181.709 39.5973 180.93 40.248C180.162 40.8987 179.218 41.224 178.098 41.224C177.223 41.224 176.439 41.0267 175.746 40.632C175.063 40.2267 174.567 39.6347 174.258 38.856L176.146 37.768C176.423 38.632 177.074 39.064 178.098 39.064C178.663 39.064 179.101 38.9307 179.41 38.664C179.73 38.3867 179.89 38.0133 179.89 37.544C179.89 37.0853 179.73 36.7173 179.41 36.44C179.101 36.1627 178.663 36.024 178.098 36.024H177.618L176.77 34.744L178.978 31.864H174.594V29.8H181.634V31.624L179.538 34.344ZM187.649 41.224C186.251 41.224 185.153 40.696 184.353 39.64C183.563 38.5733 183.169 37.16 183.169 35.4C183.169 33.64 183.563 32.232 184.353 31.176C185.153 30.1093 186.251 29.576 187.649 29.576C189.057 29.576 190.155 30.1093 190.945 31.176C191.734 32.232 192.129 33.64 192.129 35.4C192.129 37.16 191.734 38.5733 190.945 39.64C190.155 40.696 189.057 41.224 187.649 41.224ZM185.953 38.136C186.337 38.7547 186.902 39.064 187.649 39.064C188.395 39.064 188.961 38.7493 189.345 38.12C189.739 37.4907 189.937 36.584 189.937 35.4C189.937 34.2053 189.739 33.2933 189.345 32.664C188.961 32.0347 188.395 31.72 187.649 31.72C186.902 31.72 186.337 32.0347 185.953 32.664C185.569 33.2933 185.377 34.2053 185.377 35.4C185.377 36.5947 185.569 37.5067 185.953 38.136Z" fill="#31456A"/>
<path d="M247.946 111.048V113.096H246.746V115H244.522V113.096H239.226V111.048L242.954 103.8H245.322L241.61 111.048H244.522V108.392H246.746V111.048H247.946ZM253.211 115.224C251.814 115.224 250.715 114.696 249.915 113.64C249.126 112.573 248.731 111.16 248.731 109.4C248.731 107.64 249.126 106.232 249.915 105.176C250.715 104.109 251.814 103.576 253.211 103.576C254.619 103.576 255.718 104.109 256.507 105.176C257.297 106.232 257.691 107.64 257.691 109.4C257.691 111.16 257.297 112.573 256.507 113.64C255.718 114.696 254.619 115.224 253.211 115.224ZM251.515 112.136C251.899 112.755 252.465 113.064 253.211 113.064C253.958 113.064 254.523 112.749 254.907 112.12C255.302 111.491 255.499 110.584 255.499 109.4C255.499 108.205 255.302 107.293 254.907 106.664C254.523 106.035 253.958 105.72 253.211 105.72C252.465 105.72 251.899 106.035 251.515 106.664C251.131 107.293 250.939 108.205 250.939 109.4C250.939 110.595 251.131 111.507 251.515 112.136Z" fill="#31456A"/>
<path d="M229.37 198.88C230.447 198.88 231.354 199.205 232.09 199.856C232.826 200.496 233.194 201.392 233.194 202.544C233.194 203.696 232.805 204.597 232.026 205.248C231.258 205.899 230.314 206.224 229.194 206.224C228.287 206.224 227.487 206.021 226.794 205.616C226.101 205.211 225.599 204.613 225.29 203.824L227.178 202.72C227.455 203.616 228.127 204.064 229.194 204.064C229.759 204.064 230.197 203.931 230.506 203.664C230.826 203.387 230.986 203.013 230.986 202.544C230.986 202.085 230.831 201.717 230.522 201.44C230.213 201.163 229.791 201.024 229.258 201.024H225.866L226.314 194.8H232.666V196.864H228.362L228.218 198.88H229.37ZM238.602 206.224C237.205 206.224 236.106 205.696 235.306 204.64C234.517 203.573 234.122 202.16 234.122 200.4C234.122 198.64 234.517 197.232 235.306 196.176C236.106 195.109 237.205 194.576 238.602 194.576C240.01 194.576 241.109 195.109 241.898 196.176C242.687 197.232 243.082 198.64 243.082 200.4C243.082 202.16 242.687 203.573 241.898 204.64C241.109 205.696 240.01 206.224 238.602 206.224ZM236.906 203.136C237.29 203.755 237.855 204.064 238.602 204.064C239.349 204.064 239.914 203.749 240.298 203.12C240.693 202.491 240.89 201.584 240.89 200.4C240.89 199.205 240.693 198.293 240.298 197.664C239.914 197.035 239.349 196.72 238.602 196.72C237.855 196.72 237.29 197.035 236.906 197.664C236.522 198.293 236.33 199.205 236.33 200.4C236.33 201.595 236.522 202.507 236.906 203.136Z" fill="#31456A"/>
<path d="M96.5808 48.1869C96.8212 48.0748 97.0963 48.0628 97.3455 48.1535C97.5947 48.2442 97.7977 48.4302 97.9098 48.6706L107.63 69.5156L105.817 70.3609L96.0972 49.5158C95.9851 49.2754 95.9731 49.0004 96.0638 48.7512C96.1545 48.5019 96.3405 48.299 96.5808 48.1869Z" fill="#31456A"/>
<path d="M43.3377 111.638C43.4063 111.382 43.5739 111.163 43.8036 111.031C44.0333 110.898 44.3062 110.862 44.5624 110.931L66.7787 116.884L66.2611 118.816L44.0448 112.863C43.7886 112.794 43.5702 112.626 43.4376 112.397C43.305 112.167 43.269 111.894 43.3377 111.638Z" fill="#31456A"/>
<path d="M57.7242 193.211C57.5721 192.994 57.5125 192.725 57.5585 192.464C57.6046 192.203 57.7525 191.971 57.9698 191.818L76.8103 178.626L77.9574 180.264L59.1169 193.457C58.8997 193.609 58.6309 193.668 58.3697 193.622C58.1085 193.576 57.8763 193.428 57.7242 193.211Z" fill="#31456A"/>
<path d="M138 47C138.265 47 138.52 47.1054 138.707 47.2929C138.895 47.4804 139 47.7348 139 48V63H137V48C137 47.7348 137.105 47.4804 137.293 47.2929C137.48 47.1054 137.735 47 138 47Z" fill="#31456A"/>
<path d="M69.048 79.1514C69.2185 78.9483 69.4627 78.8211 69.7269 78.798C69.9911 78.7749 70.2537 78.8577 70.4569 79.0282L81.9475 88.67L80.662 90.2021L69.1713 80.5603C68.9681 80.3898 68.841 80.1456 68.8179 79.8814C68.7948 79.6172 68.8776 79.3546 69.048 79.1514Z" fill="#31456A"/>
<path d="M49.3718 152.629C49.3257 152.368 49.3853 152.099 49.5375 151.881C49.6896 151.664 49.9218 151.516 50.183 151.47L64.9551 148.866L65.3024 150.835L50.5303 153.44C50.2691 153.486 50.0003 153.426 49.783 153.274C49.5658 153.122 49.4179 152.89 49.3718 152.629Z" fill="#31456A"/>
<path d="M130.854 55.312C131.118 55.2889 131.381 55.3717 131.584 55.5422C131.787 55.7126 131.914 55.9568 131.937 56.2211L132.547 63.1944L130.555 63.3687L129.945 56.3954C129.922 56.1312 130.005 55.8686 130.175 55.6654C130.345 55.4623 130.59 55.3351 130.854 55.312Z" fill="#31456A"/>
<path d="M123.762 56.2436C124.024 56.1975 124.292 56.2571 124.51 56.4092C124.727 56.5614 124.875 56.7936 124.921 57.0547L126.136 63.9484L124.167 64.2957L122.951 57.402C122.905 57.1409 122.965 56.8721 123.117 56.6548C123.269 56.4376 123.501 56.2896 123.762 56.2436Z" fill="#31456A"/>
<path d="M117.207 57.8296C117.465 57.7606 117.739 57.7967 117.969 57.9299C118.2 58.063 118.368 58.2823 118.437 58.5396L120.257 65.3296L118.317 65.8496L116.497 59.0596C116.428 58.8023 116.464 58.5282 116.598 58.2976C116.731 58.0669 116.95 57.8986 117.207 57.8296Z" fill="#31456A"/>
<path d="M109.95 59.9469C110.199 59.8562 110.474 59.8682 110.714 59.9803C110.955 60.0924 111.141 60.2954 111.231 60.5446L113.625 67.1224L111.746 67.8065L109.352 61.2286C109.261 60.9794 109.273 60.7044 109.385 60.464C109.497 60.2236 109.7 60.0376 109.95 59.9469Z" fill="#31456A"/>
<path d="M96.999 65.9849C97.2286 65.8523 97.5016 65.8163 97.7578 65.885C98.014 65.9536 98.2324 66.1212 98.365 66.3509L101.865 72.4131L100.133 73.4131L96.6329 67.3509C96.5003 67.1212 96.4644 66.8482 96.533 66.5921C96.6017 66.3359 96.7693 66.1175 96.999 65.9849Z" fill="#31456A"/>
<path d="M90.9675 69.8363C91.1848 69.6842 91.4536 69.6246 91.7148 69.6707C91.9759 69.7167 92.2081 69.8647 92.3603 70.0819L96.3753 75.816L94.737 76.9631L90.722 71.2291C90.5698 71.0118 90.5102 70.743 90.5563 70.4818C90.6024 70.2207 90.7503 69.9885 90.9675 69.8363Z" fill="#31456A"/>
<path d="M85.2873 74.1918C85.4905 74.0213 85.7531 73.9385 86.0173 73.9617C86.2815 73.9848 86.5257 74.1119 86.6962 74.3151L91.1957 79.6774L89.6636 80.963L85.1641 75.6006C84.9936 75.3975 84.9108 75.1349 84.9339 74.8707C84.957 74.6065 85.0842 74.3623 85.2873 74.1918Z" fill="#31456A"/>
<path d="M80.0265 79.0215C80.214 78.834 80.4684 78.7286 80.7336 78.7286C80.9988 78.7286 81.2531 78.834 81.4407 79.0215L86.3904 83.9713L84.9762 85.3855L80.0265 80.4357C79.8389 80.2482 79.7336 79.9939 79.7336 79.7286C79.7336 79.4634 79.8389 79.2091 80.0265 79.0215Z" fill="#31456A"/>
<path d="M70.8352 89.9627C70.9874 89.7455 71.2196 89.5975 71.4807 89.5515C71.7419 89.5054 72.0107 89.565 72.228 89.7171L77.962 93.7322L76.8149 95.3705L71.0808 91.3554C70.8636 91.2033 70.7156 90.9711 70.6696 90.7099C70.6235 90.4487 70.6831 90.18 70.8352 89.9627Z" fill="#31456A"/>
<path d="M66.9849 96.001C67.1175 95.7714 67.3359 95.6038 67.5921 95.5351C67.8482 95.4665 68.1212 95.5024 68.3509 95.635L74.4131 99.135L73.4131 100.867L67.3509 97.3671C67.1212 97.2345 66.9536 97.016 66.885 96.7599C66.8163 96.5037 66.8522 96.2307 66.9849 96.001Z" fill="#31456A"/>
<path d="M63.6472 102.332C63.7592 102.092 63.9622 101.906 64.2114 101.815C64.4607 101.724 64.7357 101.736 64.9761 101.848L71.3202 104.807L70.475 106.619L64.1308 103.661C63.8905 103.549 63.7045 103.346 63.6138 103.097C63.5231 102.847 63.5351 102.572 63.6472 102.332Z" fill="#31456A"/>
<path d="M60.9388 108.956C61.0295 108.707 61.2155 108.504 61.4559 108.392C61.6963 108.28 61.9713 108.268 62.2205 108.359L68.7984 110.753L68.1144 112.632L61.5365 110.238C61.2873 110.147 61.0843 109.961 60.9722 109.721C60.8601 109.481 60.8481 109.206 60.9388 108.956Z" fill="#31456A"/>
<path d="M57.2477 122.763C57.2938 122.501 57.4417 122.269 57.6589 122.117C57.8762 121.965 58.145 121.905 58.4062 121.951L65.2998 123.167L64.9525 125.137L58.0589 123.921C57.7977 123.875 57.5655 123.727 57.4134 123.51C57.2612 123.293 57.2017 123.024 57.2477 122.763Z" fill="#31456A"/>
<path d="M56.3077 129.855C56.3309 129.59 56.458 129.346 56.6612 129.176C56.8643 129.005 57.1269 128.922 57.3911 128.945L64.3645 129.556L64.1901 131.548L57.2168 130.938C56.9526 130.915 56.7084 130.788 56.5379 130.584C56.3674 130.381 56.2846 130.119 56.3077 129.855Z" fill="#31456A"/>
<path d="M56 137C56 136.735 56.1054 136.48 56.2929 136.293C56.4804 136.105 56.7348 136 57 136H64V138H57C56.7348 138 56.4804 137.895 56.2929 137.707C56.1054 137.52 56 137.265 56 137Z" fill="#31456A"/>
<path d="M56.653 143.658C56.6291 143.393 56.7116 143.129 56.8823 142.924C57.0529 142.72 57.2978 142.592 57.563 142.568L64.563 141.938L64.743 143.938L57.743 144.568C57.4778 144.592 57.214 144.509 57.0095 144.339C56.8051 144.168 56.6769 143.923 56.653 143.658Z" fill="#31456A"/>
<path d="M58.7922 158.222C58.7235 157.966 58.7595 157.693 58.8921 157.463C59.0247 157.234 59.2431 157.066 59.4993 156.997L66.2607 155.186L66.7784 157.118L60.0169 158.929C59.7607 158.998 59.4878 158.962 59.2581 158.829C59.0284 158.697 58.8608 158.478 58.7922 158.222Z" fill="#31456A"/>
<path d="M60.9523 165.044C60.8616 164.794 60.8736 164.519 60.9857 164.279C61.0978 164.039 61.3008 163.853 61.55 163.762L68.1278 161.368L68.8119 163.247L62.234 165.641C61.9848 165.732 61.7098 165.72 61.4694 165.608C61.229 165.496 61.043 165.293 60.9523 165.044Z" fill="#31456A"/>
<path d="M63.7158 171.636C63.6037 171.395 63.5917 171.12 63.6824 170.871C63.7731 170.622 63.9591 170.419 64.1995 170.307L70.5436 167.348L71.3889 169.161L65.0447 172.119C64.8044 172.231 64.5293 172.243 64.2801 172.153C64.0309 172.062 63.8279 171.876 63.7158 171.636Z" fill="#31456A"/>
<path d="M66.9848 178.001C66.8522 177.771 66.8163 177.498 66.8849 177.242C66.9536 176.986 67.1212 176.768 67.3509 176.635L73.413 173.135L74.413 174.867L68.3509 178.367C68.1212 178.5 67.8482 178.536 67.592 178.467C67.3359 178.398 67.1174 178.231 66.9848 178.001Z" fill="#31456A"/>
<path d="M170.174 70.3484L168.361 69.5032L178.081 48.6581C178.193 48.4177 178.396 48.2317 178.646 48.141C178.895 48.0503 179.17 48.0623 179.41 48.1744C179.651 48.2865 179.837 48.4894 179.927 48.7387C180.018 48.9879 180.006 49.2629 179.894 49.5033L170.174 70.3484Z" fill="#31456A"/>
<path d="M209.84 117.91L209.32 115.97L231.63 109.99C231.887 109.921 232.161 109.957 232.392 110.09C232.622 110.223 232.791 110.442 232.86 110.7C232.929 110.957 232.892 111.231 232.759 111.462C232.626 111.692 232.407 111.861 232.15 111.93L209.84 117.91Z" fill="#31456A"/>
<path d="M198.05 180.265L199.197 178.626L218.038 191.819C218.255 191.971 218.403 192.203 218.449 192.464C218.495 192.725 218.436 192.994 218.284 193.211C218.131 193.429 217.899 193.577 217.638 193.623C217.377 193.669 217.108 193.609 216.891 193.457L198.05 180.265Z" fill="#31456A"/>
<path d="M139 63H137V48C137 47.7348 137.105 47.4804 137.293 47.2929C137.48 47.1054 137.735 47 138 47C138.265 47 138.52 47.1054 138.707 47.2929C138.895 47.4804 139 47.7348 139 48V63Z" fill="#31456A"/>
<path d="M195.324 90.2023L194.039 88.6702L205.529 79.0284C205.732 78.8579 205.995 78.7751 206.259 78.7982C206.523 78.8213 206.768 78.9485 206.938 79.1516C207.108 79.3548 207.191 79.6174 207.168 79.8816C207.145 80.1458 207.018 80.39 206.815 80.5605L195.324 90.2023Z" fill="#31456A"/>
<path d="M209.403 151.336L209.743 149.376L224.443 151.926C224.703 151.971 224.934 152.117 225.086 152.333C225.238 152.549 225.298 152.816 225.253 153.076C225.208 153.336 225.061 153.567 224.845 153.719C224.63 153.871 224.363 153.931 224.103 153.886L209.403 151.336Z" fill="#31456A"/>
<path d="M145.443 63.365L143.451 63.1907L144.061 56.2173C144.084 55.9531 144.211 55.7089 144.414 55.5384C144.617 55.3679 144.88 55.2852 145.144 55.3083C145.408 55.3314 145.652 55.4585 145.823 55.6617C145.993 55.8649 146.076 56.1274 146.053 56.3916L145.443 63.365Z" fill="#31456A"/>
<path d="M151.842 64.3037L149.872 63.9564L151.088 57.0628C151.134 56.8016 151.282 56.5694 151.499 56.4173C151.716 56.2651 151.985 56.2055 152.246 56.2516C152.507 56.2977 152.74 56.4456 152.892 56.6628C153.044 56.8801 153.103 57.1489 153.057 57.4101L151.842 64.3037Z" fill="#31456A"/>
<path d="M158.115 65.7794L156.183 65.2618L157.995 58.5003C158.063 58.2441 158.231 58.0257 158.461 57.8931C158.69 57.7605 158.963 57.7246 159.219 57.7932C159.476 57.8618 159.694 58.0294 159.827 58.2591C159.959 58.4888 159.995 58.7618 159.927 59.0179L158.115 65.7794Z" fill="#31456A"/>
<path d="M164.251 67.8065L162.371 67.1225L164.765 60.5446C164.856 60.2954 165.042 60.0924 165.282 59.9803C165.523 59.8683 165.798 59.8562 166.047 59.947C166.296 60.0377 166.499 60.2237 166.611 60.464C166.723 60.7044 166.735 60.9794 166.645 61.2287L164.251 67.8065Z" fill="#31456A"/>
<path d="M175.867 73.4152L174.135 72.4152L177.635 66.353C177.768 66.1233 177.986 65.9557 178.242 65.8871C178.498 65.8184 178.771 65.8543 179.001 65.987C179.231 66.1196 179.398 66.338 179.467 66.5942C179.536 66.8503 179.5 67.1233 179.367 67.353L175.867 73.4152Z" fill="#31456A"/>
<path d="M181.263 76.9575L179.625 75.8104L183.64 70.0763C183.792 69.859 184.024 69.7111 184.286 69.6651C184.547 69.619 184.816 69.6786 185.033 69.8307C185.25 69.9828 185.398 70.215 185.444 70.4762C185.49 70.7374 185.431 71.0062 185.278 71.2235L181.263 76.9575Z" fill="#31456A"/>
<path d="M186.331 80.9542L184.799 79.6686L189.298 74.3063C189.469 74.1032 189.713 73.976 189.977 73.9529C190.242 73.9298 190.504 74.0126 190.707 74.1831C190.91 74.3536 191.038 74.5978 191.061 74.862C191.084 75.1262 191.001 75.3887 190.831 75.5919L186.331 80.9542Z" fill="#31456A"/>
<path d="M191.035 85.3767L189.621 83.9625L194.57 79.0127C194.758 78.8252 195.012 78.7199 195.277 78.7199C195.543 78.7199 195.797 78.8252 195.985 79.0127C196.172 79.2003 196.277 79.4546 196.277 79.7199C196.277 79.9851 196.172 80.2394 195.985 80.427L191.035 85.3767Z" fill="#31456A"/>
<path d="M199.189 95.3832L198.042 93.7449L203.776 89.7298C203.993 89.5777 204.262 89.5181 204.523 89.5642C204.784 89.6102 205.017 89.7582 205.169 89.9754C205.321 90.1927 205.38 90.4615 205.334 90.7226C205.288 90.9838 205.14 91.216 204.923 91.3681L199.189 95.3832Z" fill="#31456A"/>
<path d="M202.585 100.867L201.585 99.135L207.647 95.635C207.877 95.5024 208.15 95.4665 208.406 95.5351C208.662 95.6038 208.88 95.7714 209.013 96.001C209.146 96.2307 209.182 96.5037 209.113 96.7599C209.044 97.016 208.877 97.2345 208.647 97.3671L202.585 100.867Z" fill="#31456A"/>
<path d="M205.462 106.651L204.617 104.838L210.961 101.88C211.202 101.768 211.477 101.756 211.726 101.847C211.975 101.937 212.178 102.123 212.29 102.364C212.402 102.604 212.414 102.879 212.324 103.128C212.233 103.377 212.047 103.58 211.806 103.693L205.462 106.651Z" fill="#31456A"/>
<path d="M207.872 112.625L207.188 110.745L213.766 108.351C214.015 108.261 214.29 108.273 214.531 108.385C214.771 108.497 214.957 108.7 215.048 108.949C215.138 109.198 215.126 109.473 215.014 109.714C214.902 109.954 214.699 110.14 214.45 110.231L207.872 112.625Z" fill="#31456A"/>
<path d="M211.055 125.127L210.708 123.157L217.601 121.942C217.863 121.896 218.131 121.955 218.349 122.107C218.566 122.259 218.714 122.492 218.76 122.753C218.806 123.014 218.746 123.283 218.594 123.5C218.442 123.717 218.21 123.865 217.949 123.911L211.055 125.127Z" fill="#31456A"/>
<path d="M211.805 131.554L211.63 129.562L218.604 128.952C218.868 128.929 219.131 129.012 219.334 129.182C219.537 129.353 219.664 129.597 219.687 129.861C219.71 130.125 219.627 130.388 219.457 130.591C219.287 130.794 219.042 130.921 218.778 130.944L211.805 131.554Z" fill="#31456A"/>
<path d="M212 138V136H219C219.265 136 219.52 136.105 219.707 136.293C219.895 136.48 220 136.735 220 137C220 137.265 219.895 137.52 219.707 137.707C219.52 137.895 219.265 138 219 138H212Z" fill="#31456A"/>
<path d="M212.633 144.052L212.813 142.052L219.813 142.682C220.078 142.706 220.323 142.834 220.494 143.039C220.664 143.243 220.747 143.507 220.723 143.772C220.699 144.037 220.571 144.282 220.366 144.453C220.162 144.623 219.898 144.706 219.633 144.682L212.633 144.052Z" fill="#31456A"/>
<path d="M209.219 157.119L209.737 155.187L216.498 156.999C216.755 157.068 216.973 157.235 217.106 157.465C217.238 157.695 217.274 157.967 217.206 158.224C217.137 158.48 216.969 158.698 216.74 158.831C216.51 158.963 216.237 158.999 215.981 158.931L209.219 157.119Z" fill="#31456A"/>
<path d="M207.199 163.247L207.883 161.368L214.461 163.762C214.71 163.853 214.913 164.039 215.025 164.279C215.137 164.519 215.149 164.794 215.059 165.044C214.968 165.293 214.782 165.496 214.541 165.608C214.301 165.72 214.026 165.732 213.777 165.641L207.199 163.247Z" fill="#31456A"/>
<path d="M204.681 169.197L205.526 167.385L211.87 170.343C212.11 170.455 212.296 170.658 212.387 170.907C212.478 171.157 212.466 171.432 212.354 171.672C212.242 171.912 212.039 172.098 211.789 172.189C211.54 172.28 211.265 172.268 211.025 172.156L204.681 169.197Z" fill="#31456A"/>
<path d="M201.585 174.867L202.585 173.135L208.647 176.635C208.877 176.768 209.044 176.986 209.113 177.242C209.182 177.498 209.146 177.771 209.013 178.001C208.88 178.231 208.662 178.398 208.406 178.467C208.15 178.536 207.877 178.5 207.647 178.367L201.585 174.867Z" fill="#31456A"/>
<path d="M90.82 102.42C96.248 95.0025 103.35 88.9704 111.548 84.8141C119.746 80.6578 128.809 78.4944 138 78.4999C140.639 78.5071 143.275 78.6875 145.89 79.0399L148.3 63.2299C135.052 61.3587 121.544 63.0987 109.202 68.2663C96.8604 73.4339 86.1427 81.8374 78.18 92.5899L90.82 102.42Z" fill="#F5F5F5" stroke="#F5F5F5" stroke-width="2" stroke-miterlimit="10" stroke-linecap="round" stroke-linejoin="round"/>
<path d="M90.08 170.54C82.1915 159.276 78.524 145.592 79.7219 131.893C80.9198 118.193 86.9063 105.354 96.63 95.6299L85.32 84.3199C72.9365 96.7047 65.3143 113.058 63.7926 130.505C62.271 147.953 66.9474 165.378 77 179.72L90.08 170.54Z" fill="#41479B" stroke="#41479B" stroke-width="2" stroke-miterlimit="10" stroke-linecap="round" stroke-linejoin="round"/>
<path d="M132.77 78.74C134.5 78.59 136.24 78.5 138 78.5C148.695 78.5035 159.183 81.4391 168.326 86.9875C177.469 92.536 184.915 100.485 189.856 109.97C194.796 119.455 197.042 130.113 196.348 140.785C195.654 151.457 192.047 161.735 185.92 170.5L199.02 179.68C206.83 168.518 211.429 155.428 212.317 141.834C213.205 128.24 210.348 114.663 204.056 102.58C197.764 90.4973 188.278 80.3715 176.631 73.3047C164.985 66.2379 151.623 62.5008 138 62.5C135.75 62.5 133.54 62.62 131.34 62.81L132.77 78.74Z" fill="#FF4B55" stroke="#FF4B55" stroke-width="2" stroke-miterlimit="10" stroke-linecap="round" stroke-linejoin="round"/>
<g filter="url(#filter0_ii)">
<circle cx="138" cy="138" r="132" fill="url(#paint1_linear)" fill-opacity="0.05"/>
</g>
<path d="M130.825 205.32C130.057 205.32 129.417 205.064 128.905 204.552C128.393 204.029 128.137 203.405 128.137 202.68C128.137 201.944 128.393 201.32 128.905 200.808C129.417 200.296 130.057 200.04 130.825 200.04C131.593 200.04 132.233 200.296 132.745 200.808C133.257 201.32 133.513 201.944 133.513 202.68C133.513 203.416 133.257 204.04 132.745 204.552C132.244 205.064 131.604 205.32 130.825 205.32ZM130.137 203.368C130.319 203.549 130.548 203.64 130.825 203.64C131.103 203.64 131.327 203.549 131.497 203.368C131.679 203.187 131.769 202.957 131.769 202.68C131.769 202.403 131.679 202.173 131.497 201.992C131.327 201.811 131.103 201.72 130.825 201.72C130.548 201.72 130.319 201.811 130.137 201.992C129.967 202.173 129.881 202.403 129.881 202.68C129.881 202.957 129.967 203.187 130.137 203.368ZM139.743 213.224C138.057 213.224 136.665 212.664 135.567 211.544C134.468 210.424 133.919 209.043 133.919 207.4C133.919 205.747 134.468 204.365 135.567 203.256C136.665 202.136 138.057 201.576 139.743 201.576C140.756 201.576 141.689 201.816 142.543 202.296C143.407 202.765 144.079 203.405 144.559 204.216L142.655 205.32C142.377 204.819 141.983 204.429 141.471 204.152C140.959 203.864 140.383 203.72 139.743 203.72C138.655 203.72 137.775 204.061 137.103 204.744C136.441 205.427 136.111 206.312 136.111 207.4C136.111 208.477 136.441 209.357 137.103 210.04C137.775 210.723 138.655 211.064 139.743 211.064C140.383 211.064 140.959 210.925 141.471 210.648C141.993 210.36 142.388 209.971 142.655 209.48L144.559 210.584C144.079 211.395 143.412 212.04 142.559 212.52C141.705 212.989 140.767 213.224 139.743 213.224Z" fill="#31456A"/>
<defs>
<filter id="filter0_ii" x="3" y="3" width="274" height="274" filterUnits="userSpaceOnUse" color-interpolation-filters="sRGB">
<feFlood flood-opacity="0" result="BackgroundImageFix"/>
<feBlend mode="normal" in="SourceGraphic" in2="BackgroundImageFix" result="shape"/>
<feColorMatrix in="SourceAlpha" type="matrix" values="0 0 0 0 0 0 0 0 0 0 0 0 0 0 0 0 0 0 127 0" result="hardAlpha"/>
<feOffset dx="7" dy="7"/>
<feGaussianBlur stdDeviation="15"/>
<feComposite in2="hardAlpha" operator="arithmetic" k2="-1" k3="1"/>
<feColorMatrix type="matrix" values="0 0 0 0 0.534167 0 0 0 0 0.645967 0 0 0 0 0.749167 0 0 0 0.48 0"/>
<feBlend mode="normal" in2="shape" result="effect1_innerShadow"/>
<feColorMatrix in="SourceAlpha" type="matrix" values="0 0 0 0 0 0 0 0 0 0 0 0 0 0 0 0 0 0 127 0" result="hardAlpha"/>
<feOffset dx="-3" dy="-3"/>
<feGaussianBlur stdDeviation="5"/>
<feComposite in2="hardAlpha" operator="arithmetic" k2="-1" k3="1"/>
<feColorMatrix type="matrix" values="0 0 0 0 1 0 0 0 0 1 0 0 0 0 1 0 0 0 1 0"/>
<feBlend mode="normal" in2="effect1_innerShadow" result="effect2_innerShadow"/>
</filter>
<linearGradient id="paint0_linear" x1="2" y1="2" x2="560.069" y2="473.31" gradientUnits="userSpaceOnUse">
<stop offset="0.188476" stop-color="white"/>
<stop offset="1" stop-color="#37536F" stop-opacity="0.4"/>
</linearGradient>
<linearGradient id="paint1_linear" x1="138" y1="6" x2="138" y2="270" gradientUnits="userSpaceOnUse">
<stop stop-color="#EBF3FA"/>
<stop offset="0.515625" stop-color="#E3EDF7"/>
<stop offset="1" stop-color="#E6F0F9"/>
</linearGradient>
</defs>
</svg>
