<svg width="33" height="26" viewBox="0 0 33 26" fill="none" xmlns="http://www.w3.org/2000/svg">
<g filter="url(#filter0_ii)">
<path d="M7.16619 15.8397C5.71932 14.7379 4.78611 13.0016 4.78611 11.0484C4.78611 7.71868 7.49827 5.01938 10.8439 5.01938C13.1763 5.01938 15.2008 6.33131 16.2132 8.25418M7.16619 15.8397C-1.09223 14.7364 0.014515 25.3581 5.92193 24.9907H27.3766C34.0654 24.1114 32.6771 16.9519 28.3862 15.6958C29.6482 7.28028 20.7956 3.93948 16.2132 8.25418M7.16619 15.8397C7.37637 15.8677 7.59262 15.9034 7.815 15.9471C7.31019 13.6862 10.3391 10.6716 13.8728 12.9325C14.2231 10.8652 15.0797 9.32142 16.2132 8.25418M1 11.0484H2.51444M2.97497 3.47477L4.74859 5.06346M10.8439 1V2.50727M18.4161 3.46901L16.8584 5.01938" stroke="url(#paint0_linear)" stroke-opacity="0.5" stroke-width="2" stroke-linecap="round" stroke-linejoin="round"/>
</g>
<defs>
<filter id="filter0_ii" x="-0.5" y="-0.5" width="34" height="27.0004" filterUnits="userSpaceOnUse" color-interpolation-filters="sRGB">
<feFlood flood-opacity="0" result="BackgroundImageFix"/>
<feBlend mode="normal" in="SourceGraphic" in2="BackgroundImageFix" result="shape"/>
<feColorMatrix in="SourceAlpha" type="matrix" values="0 0 0 0 0 0 0 0 0 0 0 0 0 0 0 0 0 0 127 0" result="hardAlpha"/>
<feOffset dx="-0.5" dy="-0.5"/>
<feGaussianBlur stdDeviation="0.25"/>
<feComposite in2="hardAlpha" operator="arithmetic" k2="-1" k3="1"/>
<feColorMatrix type="matrix" values="0 0 0 0 1 0 0 0 0 1 0 0 0 0 1 0 0 0 0.4 0"/>
<feBlend mode="normal" in2="shape" result="effect1_innerShadow"/>
<feColorMatrix in="SourceAlpha" type="matrix" values="0 0 0 0 0 0 0 0 0 0 0 0 0 0 0 0 0 0 127 0" result="hardAlpha"/>
<feOffset dx="0.5" dy="0.5"/>
<feGaussianBlur stdDeviation="0.25"/>
<feComposite in2="hardAlpha" operator="arithmetic" k2="-1" k3="1"/>
<feColorMatrix type="matrix" values="0 0 0 0 0.127604 0 0 0 0 0.267969 0 0 0 0 0.408333 0 0 0 0.4 0"/>
<feBlend mode="normal" in2="effect1_innerShadow" result="effect2_innerShadow"/>
</filter>
<linearGradient id="paint0_linear" x1="29.675" y1="25" x2="8.8682" y2="-8.59331" gradientUnits="userSpaceOnUse">
<stop stop-color="#48647D"/>
<stop offset="0.234375" stop-color="#6B8299"/>
<stop offset="0.442708" stop-color="#DAE2EB"/>
<stop offset="0.682292" stop-color="#8CA2B7"/>
<stop offset="1" stop-color="#EDF2F7"/>
</linearGradient>
</defs>
</svg>
